<svg xmlns="http://www.w3.org/2000/svg" xmlns:xlink="http://www.w3.org/1999/xlink" viewBox="0 0 125 125"><defs><linearGradient id="a" x1="0.946" y1="0.289" x2="0.014" y2="0.947" gradientUnits="objectBoundingBox"><stop offset="0" stop-opacity="0.102"/><stop offset="1" stop-opacity="0"/></linearGradient><linearGradient id="b" x1="0.008" y1="0.023" x2="1.251" y2="0.65" gradientUnits="objectBoundingBox"><stop offset="0" stop-opacity="0.2"/><stop offset="0.595" stop-opacity="0.2"/><stop offset="1" stop-opacity="0"/></linearGradient></defs><g transform="translate(-757 -126)"><rect width="125" height="125" rx="5" transform="translate(757 126)" fill="#f57f17"/><rect width="100" height="72" rx="6" transform="translate(770 152)" fill="#fff"/><path d="M87.415,73V18.939L49.259,45.447,11,18.939S11.081,73.046,11.03,73l-.018,0h-4.9a6,6,0,0,1-6-6V7.089a6.048,6.048,0,0,1,.069-.913q.033-.2.075-.4A5.984,5.984,0,0,1,1.623,3.1l.069-.056q.05-.065.1-.128A5.983,5.983,0,0,1,6.108,1.089H8.8c.188.045.293.077.293.077l40.163,29.42L89.323,1.166s.026-.029.074-.077h4.711a6,6,0,0,1,6,6V67a6,6,0,0,1-6,6Z" transform="translate(769.892 150.911)" fill="#f04a3f"/><path d="M780.917,223.91l38.333-27.66-49.375-33.875L770.031,219A7.6,7.6,0,0,0,772,222.438a5.985,5.985,0,0,0,3.125,1.473C775.125,223.875,780.917,223.91,780.917,223.91Z" fill="url(#a)"/><path d="M869.938,161.063l-50.75,35.25L770.063,162.25,831.813,224h32.6a8.413,8.413,0,0,0,3.865-1.813,7.1,7.1,0,0,0,1.656-3.687Z" fill="url(#b)"/></g></svg>
