<svg xmlns="http://www.w3.org/2000/svg" width="125" height="125" viewBox="0 0 125 125"><g transform="translate(-446 -123)"><rect width="125" height="125" rx="5" transform="translate(446 123)" fill="#9c27b0"/><g transform="translate(459 136)" fill="none"><path d="M25,0H75a25,25,0,0,1,25,25V75a25,25,0,0,1-25,25H25A25,25,0,0,1,0,75V25A25,25,0,0,1,25,0Z" stroke="none"/><path d="M 25 6 C 14.52336120605469 6 6 14.52336120605469 6 25 L 6 75 C 6 85.47663879394531 14.52336120605469 94 25 94 L 75 94 C 85.47663879394531 94 94 85.47663879394531 94 75 L 94 25 C 94 14.52336120605469 85.47663879394531 6 75 6 L 25 6 M 25 0 L 75 0 C 88.80712127685547 0 100 11.19287872314453 100 25 L 100 75 C 100 88.80712127685547 88.80712127685547 100 75 100 L 25 100 C 11.19287872314453 100 0 88.80712127685547 0 75 L 0 25 C 0 11.19287872314453 11.19287872314453 0 25 0 Z" stroke="none" fill="#fff"/></g><g transform="translate(477 154)" fill="none" stroke="#fff" stroke-width="6"><circle cx="32.5" cy="32.5" r="32.5" stroke="none"/><circle cx="32.5" cy="32.5" r="29.5" fill="none"/></g><circle cx="5" cy="5" r="5" transform="translate(535 151)" fill="#fff"/></g></svg>