<svg xmlns="http://www.w3.org/2000/svg" width="25" height="22.059" viewBox="0 0 25 22.059"><g transform="translate(-2.25 -4.5)"><path d="M26.357,4.5H11.179a.935.935,0,0,0-.893.948v1.81H4.594A2.386,2.386,0,0,0,2.25,9.67V21.59a4.911,4.911,0,0,0,4.8,4.969H22.657a4.672,4.672,0,0,0,4.593-4.71V5.419A.909.909,0,0,0,26.357,4.5ZM10.286,9.1V20.125H7.942V10.2a2.879,2.879,0,0,0-.184-1.1ZM9.337,23.767a3.247,3.247,0,0,1-2.26.954A2.99,2.99,0,0,1,4.929,23.8a3.159,3.159,0,0,1-.893-2.212V10.2a1.061,1.061,0,1,1,2.121,0V21.044a.909.909,0,0,0,.893.919h3.209A3.052,3.052,0,0,1,9.337,23.767Zm16.127-1.919a2.9,2.9,0,0,1-.831,2.028,2.748,2.748,0,0,1-1.975.844H10.916a4.884,4.884,0,0,0,1.155-3.131V6.4H25.464Z" fill="#34495e"/><path d="M17.438,9.563h6.071v2.125H17.438Z" transform="translate(-0.991 -0.687)" fill="#34495e"/><path d="M17.438,15.75h6.071v1.214H17.438Z" transform="translate(-0.991 -1.775)" fill="#34495e"/><path d="M17.438,20.25h6.071v1.214H17.438Z" transform="translate(-0.991 -2.485)" fill="#34495e"/><path d="M23.25,24.75H17.179s0,1.214-.3,1.214h5.643C23.25,25.964,23.25,25.167,23.25,24.75Z" transform="translate(-0.789 -3.195)" fill="#34495e"/></g></svg>