<svg xmlns="http://www.w3.org/2000/svg" width="125" height="125" viewBox="0 0 125 125"><g transform="translate(-614 -126)"><rect width="125" height="125" rx="5" transform="translate(614 126)" fill="#ff5722"/><path d="M50.668,90.076c-12.03,0-23.34-3.54-31.847-9.968S5.63,65.138,5.63,56.047a26.178,26.178,0,0,1,.627-5.687A12.142,12.142,0,0,1,0,40.033a11.978,11.978,0,0,1,2.8-8.179,10.107,10.107,0,0,1,7.774-3.2,15.313,15.313,0,0,1,8.8,2.924c8.174-5.969,18.93-9.359,30.284-9.546l-.148-.009,6.442-20.3A2.585,2.585,0,0,1,58.247.195a3.385,3.385,0,0,1,.96.15c1.979.592,11.852,2.75,16,3.65a9.007,9.007,0,1,1-1.522,5.179c-1.335-.3-5.79-1.266-13.241-2.877l-.333-.072L55,22.173a52.275,52.275,0,0,1,26.219,8.874,13.768,13.768,0,0,1,7.734-2.437,9.956,9.956,0,0,1,5.873,1.728,12.349,12.349,0,0,1,4.861,7.046,11.04,11.04,0,0,1-1.483,8.593,10.15,10.15,0,0,1-3.417,3.21,26.289,26.289,0,0,1,.915,6.86c0,9.09-4.685,17.636-13.191,24.061S62.7,90.076,50.668,90.076ZM35.546,65.8c-.536,0-3.207.139-3.207,2.879,0,.184.427,1.526,2.314,3.049,1.659,1.338,4.873,3.133,10.759,4.081a31.161,31.161,0,0,0,4.938.4C58.932,76.212,66,72.466,67.62,69a3.455,3.455,0,0,0-.3-1.5A2.62,2.62,0,0,0,64.7,65.987a6.238,6.238,0,0,0-1.212.131,20.763,20.763,0,0,1-13.387,4.5,25.1,25.1,0,0,1-14.448-4.815S35.616,65.8,35.546,65.8ZM64.68,42.035a7.006,7.006,0,1,0,7.006,7.006A7.014,7.014,0,0,0,64.68,42.035Zm-30.026,0a7.006,7.006,0,1,0,7.006,7.006A7.014,7.014,0,0,0,34.654,42.035Z" transform="translate(626 143)" fill="#fff"/><path d="M659.813,172" fill="none" stroke="#707070" stroke-width="1"/></g></svg>