<svg xmlns="http://www.w3.org/2000/svg" width="45" height="36" viewBox="0 0 45 36"><path d="M35.011,15.886,20.114.989A3.375,3.375,0,0,0,17.727,0H3.375A3.375,3.375,0,0,0,0,3.375V17.727a3.375,3.375,0,0,0,.989,2.386l14.9,14.9a3.375,3.375,0,0,0,4.773,0L35.011,20.659a3.375,3.375,0,0,0,0-4.773ZM7.875,11.25A3.375,3.375,0,1,1,11.25,7.875,3.375,3.375,0,0,1,7.875,11.25Zm36.136,9.409L29.659,35.011a3.375,3.375,0,0,1-4.773,0l-.025-.025L37.1,22.748a6.328,6.328,0,0,0,0-8.949L23.3,0h3.426a3.375,3.375,0,0,1,2.386.989l14.9,14.9a3.375,3.375,0,0,1,0,4.773Z" fill="#00b9ff"/></svg>