<svg xmlns="http://www.w3.org/2000/svg" width="125" height="125" viewBox="0 0 125 125"><g transform="translate(-112 -123)"><rect width="125" height="125" rx="5" transform="translate(112 123)" fill="#03a9f4"/><path d="M111.312,163.129c.149,0,9.984,22.949,44.11,20.118-.745.6-3.576-37.4,31.741-21.459-.149.3,13.561-.149,15.5-1.043s1.639,1.043,1.639,1.043-6.706,6.706-6.408,8.047,7.3-1.043,7.6,0-7.451,8.643-7.6,9.388-13.561,89.413-92.392,53.648c0-.149,22.055-1.043,25.333-7-9.537-7.749-17.286-13.412-17.286-17.435,3.725.149,7.6,1.788,7.9,0-1.49-1.937-15.051-12.369-14.157-20.714,2.98,1.043,5.812,1.937,6.259.745C112.951,186.526,105.5,171.475,111.312,163.129Z" transform="translate(18.5 -13.877)" fill="#fff"/></g></svg>