<svg xmlns="http://www.w3.org/2000/svg" width="67.333" height="71.333" viewBox="0 0 67.333 71.333"><g transform="translate(0.001 0.001)"><path d="M125.014,30.4c-.018-1.117.025-1.8.025-1.8a27.712,27.712,0,0,0,8.309-10.945s5.127,7.556,17.143,10.863c0,0,.049.729.036,1.912a3,3,0,0,1,3.506.29c5.844-18.261-11.052-22.879-15.417-23.139a9.286,9.286,0,0,0-7.345,3.267c-4.113-3.063-8.669.613-10.284,6.33-.989,3.5-.294,9.55.395,13.718a2.957,2.957,0,0,1,3.633-.5Zm0,0" transform="translate(-104.136 -6.535)" fill="#945b44"/><path d="M328.444,174.123a2.835,2.835,0,0,0-3.929-.9,32.58,32.58,0,0,1-1.629,10.128C328.7,185.307,330.477,176.95,328.444,174.123Zm0,0" transform="translate(-278.267 -148.61)" fill="#ffbd86"/><path d="M122.957,173.2a2.822,2.822,0,0,0-3.872.924c-2.031,2.824-.261,11.173,5.546,9.237a32.8,32.8,0,0,1-1.674-10.161Zm0,0" transform="translate(-101.931 -148.609)" fill="#ffbd86"/><path d="M323.569,201.7a23.748,23.748,0,0,1-.683,2.278c4.8,1.609,6.843-3.79,6.274-7.319C328.743,199.542,326.9,202.395,323.569,201.7Zm0,0" transform="translate(-278.267 -169.175)" fill="#ffa664"/><path d="M118.369,196.66c-.567,3.526,1.475,8.919,6.263,7.323-.272-.752-.5-1.517-.692-2.278-3.314.678-5.153-2.169-5.571-5.045Zm0,0" transform="translate(-101.933 -169.175)" fill="#ffa664"/><path d="M201.4,298.079a10.16,10.16,0,0,1-6.736-2.277v5.871a6.7,6.7,0,1,0,13.4,0V295.8a10.171,10.171,0,0,1-6.668,2.278Zm0,0" transform="translate(-167.704 -254.357)" fill="#ffbd86"/><path d="M177.425,92.738s1.35,20.414-12.266,20.459-12.4-20.378-12.4-20.378a27.56,27.56,0,0,0,8.053-10.945s4.969,7.556,16.615,10.863Zm0,0" transform="translate(-131.46 -70.23)" fill="#fed2a4"/><path d="M165.156,180.974c-10.607.035-12.214-12.348-12.407-17.825-.066,1.436-.693,20.332,12.407,20.288,12.644-.042,12.383-17.646,12.281-20.159-.189,5.578-1.808,17.661-12.281,17.7Zm0,0" transform="translate(-131.457 -140.18)" fill="#ffbd86"/><path d="M194.668,295.8v2.46a10.988,10.988,0,0,0,13.4,0V295.8a11,11,0,0,1-13.4,0Zm0,0" transform="translate(-167.704 -254.513)" fill="#ffa664"/><path d="M68.614,351.232c-3.747-2.98-21.6-12.182-21.6-12.182a6.815,6.815,0,0,1-13.627,0s-17.854,9.2-21.6,12.182-4.226,10.273-4.226,10.273h65.28s-.478-7.293-4.225-10.273Zm0,0" transform="translate(-6.534 -291.199)" fill="#8bcaff"/><path d="M7.907,486.3a21.6,21.6,0,0,0-.349,2.463h65.28a21.513,21.513,0,0,0-.348-2.463Zm0,0" transform="translate(-6.533 -418.454)" fill="#60b8ff"/><path d="M188.382,162.722a1.724,1.724,0,1,0-1.685,2.085A1.9,1.9,0,0,0,188.382,162.722Zm0,0" transform="translate(-159.467 -138.22)"/><path d="M279.912,164.807a2.133,2.133,0,1,0-1.685-2.085A1.9,1.9,0,0,0,279.912,164.807Zm0,0" transform="translate(-239.811 -138.22)"/><path d="M229.054,185.516q.158,0,.32-.006a1.027,1.027,0,0,0-.085-2.051c-.5.021-1.384-.008-1.657-.442-.352-.559.053-1.888.438-2.611a1.026,1.026,0,0,0-1.808-.972c-.156.289-1.491,2.88-.371,4.67a3.444,3.444,0,0,0,3.163,1.412Zm0,0" transform="translate(-194.305 -153.903)"/><path d="M202.2,234.6a1.027,1.027,0,0,0-.3,1.421,6.592,6.592,0,0,0,11.149,0,1.026,1.026,0,0,0-1.714-1.13,4.541,4.541,0,0,1-7.719,0A1.026,1.026,0,0,0,202.2,234.6Zm0,0" transform="translate(-173.81 -201.708)"/><path d="M13.877,69.226H2.216a24.278,24.278,0,0,1,.554-2.8c.5-1.9,1.455-4.466,3.178-5.867,3.044-2.474,15.919-9.406,20.159-11.665a7.881,7.881,0,0,0,15.432,0c1.586.845,4.377,2.342,7.394,4.007a1.052,1.052,0,0,0,1.009-1.847c-3.636-2.006-6.947-3.77-8.228-4.45V41.689c.249-.226.491-.462.726-.714A15.688,15.688,0,0,0,45.4,36.161a5.87,5.87,0,0,0,1.032.094,5.135,5.135,0,0,0,4.23-2.229c1.907-2.6,2.2-6.988.611-9.207-.07-.1-.143-.192-.217-.282,1.873-6.487,1.306-11.982-1.689-16.343C45.094,1.966,37.326.18,34.694.017a9.85,9.85,0,0,0-7.5,3.024,5.556,5.556,0,0,0-4.708-.505c-2.786.941-5.2,4.046-6.308,8.1a15.5,15.5,0,0,0-.46,2.961,1.048,1.048,0,1,0,2.09.147A13.49,13.49,0,0,1,18.2,11.2c.91-3.339,2.854-5.954,4.955-6.664a3.675,3.675,0,0,1,3.572.724,1.047,1.047,0,0,0,1.47-.194,8.1,8.1,0,0,1,6.371-2.943c2.192.136,9.3,1.763,13.082,7.272,2.509,3.653,3.044,8.3,1.6,13.827a3.686,3.686,0,0,0-1.8-.146c-.011-.35-.024-.557-.026-.588a1.052,1.052,0,0,0-.759-.944C35.331,18.305,30.341,10.9,30.293,10.827a1.045,1.045,0,0,0-1.852.2A27.441,27.441,0,0,1,20.564,21.8a1.057,1.057,0,0,0-.414.778c0,.028-.011.2-.019.488a3.663,3.663,0,0,0-1.758.165c-.286-2.029-.477-3.9-.566-5.585a1.048,1.048,0,1,0-2.093.113c.11,2.06.365,4.39.756,6.929-.034.045-.068.089-.1.136-1.586,2.216-1.3,6.6.607,9.2a5.134,5.134,0,0,0,4.234,2.235,5.9,5.9,0,0,0,1.021-.093,15.728,15.728,0,0,0,3.029,4.869c.218.231.443.448.673.657V46.6C22.811,48.255,8.1,56.1,4.631,58.919.558,62.229.022,69.887,0,70.212a1.061,1.061,0,0,0,1.045,1.121H13.877a1.053,1.053,0,0,0,0-2.107Zm33.244-39.9a40.117,40.117,0,0,0,.329-4.1,1.77,1.77,0,0,1,2.126.821c.965,1.348.879,4.716-.6,6.726a3.03,3.03,0,0,1-2.867,1.359,30.992,30.992,0,0,0,1.01-4.806Zm-7.5,17.908a5.794,5.794,0,1,1-11.587,0V43.2a11.792,11.792,0,0,0,5.782,1.4h.049A11.827,11.827,0,0,0,39.616,43.2ZM18.664,32.772c-1.472-2.01-1.557-5.378-.594-6.723a1.761,1.761,0,0,1,2.071-.838,40.052,40.052,0,0,0,.36,4.207,31.055,31.055,0,0,0,1.017,4.719,3.034,3.034,0,0,1-2.853-1.364Zm3.563-9.615a29.633,29.633,0,0,0,7.453-9.7A33.454,33.454,0,0,0,45.36,23.35c.054,2.6-.1,11.5-4.459,16.191A9.268,9.268,0,0,1,33.854,42.5a9.262,9.262,0,0,1-7.068-2.907c-4.554-4.837-4.611-14.251-4.56-16.431Zm0,0" transform="translate(0 0)"/><path d="M172.4,396.971c-.021-.316-.546-7.779-4.535-11a84,84,0,0,0-9.21-5.67,1.026,1.026,0,1,0-1.007,1.789,77.735,77.735,0,0,1,8.926,5.477c2.487,2.011,3.37,6.4,3.655,8.448h-46.39a1.026,1.026,0,0,0,0,2.053h47.536a1.037,1.037,0,0,0,1.025-1.092Zm0,0" transform="translate(-105.069 -326.73)"/></g></svg>